<svg version="1.1" xmlns="http://www.w3.org/2000/svg" xmlns:xlink="http://www.w3.org/1999/xlink" width="700.73715" height="581.72306" viewBox="0,0,700.73715,581.72306"><g transform="translate(27.38819,173.89256)"><g data-paper-data="{&quot;isPaintingLayer&quot;:true}" fill="#9bebff" fill-rule="nonzero" stroke="none" stroke-width="0.5" stroke-linecap="butt" stroke-linejoin="miter" stroke-miterlimit="10" stroke-dasharray="" stroke-dashoffset="0" style="mix-blend-mode: normal"><path d="M32.72087,-22.12695c2.4751,-16.1005 4.84999,-32.2268 6.56621,-48.42577c2.42813,-22.91849 4.14304,-45.90875 5.86308,-68.89123c0.80484,-10.75396 -1.08803,-23.89383 10.54688,-30.54235c4.33302,-2.47601 9.46256,-3.90625 14.45313,-3.90625c4.99056,0 10.1201,1.43024 14.45313,3.90625c6.83522,3.90584 10.5319,13.61266 10.54688,21.09375c0.00855,4.27253 0.01201,8.54509 0.01127,12.81768l0.44321,0.36934l2.75079,2.80081l0.06482,0.10158l0.0913,0.07865l2.37993,3.12206l8,13l0.8008,1.64941l0.88637,1.60505l6,14l0.58147,1.84552l0.66285,1.81788l11.87172,46.49757l14.0061,46.68701h136.76779l2.28346,-0.97863l3.05157,-0.96145l0.19641,-0.08741l0.25126,-0.05364l0.24505,-0.07721l0.21397,-0.02079l3.12894,-0.66798l6.74769,-0.74974l7.8294,-2.34882l2.34981,-0.45627l2.3463,-0.474l8.85623,-0.88562l0.13136,-0.11345l3.01673,-0.95987l5.98941,-2.49559l2.2483,0.45501l1.24556,-0.12456h1.44356l6.45558,-0.80695l0.77567,-0.01915l0.76574,-0.12522l48,-3l0.7814,0.02912l0.77806,-0.07781h53.16759l14.16943,-0.94463l0.83333,0.02759l0.82965,-0.08296h10.74575l8.78211,-1.59675l2.23803,-0.17984l2.2341,-0.22341h4.52451l7.57258,-1.51452l0.40255,-0.03947l0.39038,-0.10587l6,-1l2.05789,-0.13494l0.51934,-0.05193l0.03274,-0.02827l0.95783,-0.30476l0.36183,-0.18092l3.66855,-1.39754l1.83527,-0.28789l1.77027,-0.56327l3.90625,-0.39062h0.40454l0.993,-0.15576l0.56942,0.14461l0.96965,-0.24241l1.92359,-0.2815l0.23355,-0.07431l0.86604,-0.0866l0.86118,-0.12603l0.2446,0.01545l1.93443,-0.19344h8l3.90625,0.39063l8.01865,2.55139c13.3507,-4.44465 30.29268,-4.98455 43.13125,0.93759c4.20025,1.93748 9.51588,9.49972 13.13839,10.65655c2.26417,0.72305 3.54917,-3.16576 5.40515,-4.65055c1.95149,-1.56119 8.92538,-3.45566 12.17498,-3.69321c6.66338,-0.48711 17.0038,0.32948 23.33553,3.69321c11.16348,5.9306 22.98213,19.04667 23.16628,32.48947c0.07311,5.3367 -1.71203,9.12549 -3.50202,13.99176c-0.69965,1.90208 -2.75963,3.99456 -1.83317,5.79708c2.01349,3.91746 3.67622,8.69662 3.67793,13.14023c0.02251,58.76542 3.13657,64.76079 -0.39062,98.50084c-0.39852,3.81214 -2.37387,7.54928 -3.275,11.14758c-1.51813,6.06201 -1.67109,12.38869 -3.62329,18.37739c-3.52399,10.81041 -8.87294,22.88248 -9.22759,34.70391c-0.63941,21.31312 -0.41914,42.64955 0,63.96814c0.10313,5.24538 6.46158,6.14348 9.81271,8.37757c4.51034,3.00689 9.27147,7.08239 11.74601,11.91548c6.625,12.93945 3.87227,29.4006 0.9638,42.87352c-1.09926,5.09213 -0.6048,9.05447 -3.125,13.92686c-4.83331,9.34439 -14.67821,14.42745 -23.62257,18.21081c-4.21689,1.78369 -8.16544,4.44755 -13.03551,4.93456c-6.47773,0.64777 -14.40664,-0.34345 -20.23944,-3.25985c-1.17563,-0.58781 -10.32953,-5.67639 -12.44262,-5.88401c-8.24219,-0.80984 -19.31166,2.73759 -28.68426,1.74031l-5.56954,1.77212l-3.90625,0.39063h-0.96031l-1.14853,0.50025l-1.15951,-0.21543l-0.22551,0.04564l-0.37915,-0.15798l-1.86237,-0.34601l-2.17086,-0.21709l-1.40679,-0.44761l-3.95978,-0.7357l-1.50432,-1.00288l-1.72286,-0.54818l-3.04814,-2.63248l-1.22834,-0.81889l-1.52564,-1.55955l-2.1584,-1.86408h-9.43233l-2.64575,0.84183l-2.83227,1.46497l-2.30108,0.16837l-0.4218,0.13421l-3.90625,0.39063h-2.84467l-1.85096,0.13544l-0.23302,-0.13386l-1.00796,0.25199l-1.92359,0.2815l-0.23355,0.07431l-0.86604,0.0866l-0.86118,0.12603l-0.2446,-0.01545l-1.93443,0.19344h-0.49863l-0.01725,0.00493l-3.0835,1.63811l-1.29883,0.37341l-1.20294,0.6159l-3.78888,1.02749l-1.72345,0.28724l-0.65309,0.18776l-0.27057,-0.03382l-2.36808,0.39468l-3.0314,0.75785l-1.92359,0.2815l-0.23355,0.07431l-0.86604,0.0866l-0.86118,0.12603l-0.2446,-0.01545l-1.93443,0.19344h-83l-3.90625,-0.39062l-0.78498,-0.24977l-0.8216,-0.05963l-3.77194,-1.08806l-0.52979,-0.21192h-0.18544l-3.90625,-0.39062l-1.07482,-0.34199l-1.12263,-0.10906l-3.74428,-1.17971l-2.3535,-1.00864l-0.29852,-0.09498l-0.07574,-0.06541l-1.87966,-0.80557l-0.02008,-0.00402h-33.45545l-3.95909,0.65985l-2.05789,0.13494l-2.05208,0.20521h-9.94306l-5.15125,1.71708l-3.82932,0.86469l-0.08711,0.00119l-0.08302,0.02641l-3.75,0.375l-1.39376,0.44347l-1.45065,0.68427l-2.73114,0.6463l-2.67445,0.85096l-1.59598,0.1596l-1.77434,0.41988l-1.08754,-0.18885h-3.6717l-5.24116,0.74874l-1.77138,0.07485l-1.76416,0.17642h-8.52451l-12.57258,2.51452l-2.45169,0.24036l-2.45122,0.24512h-3.2233l-5.24116,0.74874l-1.77138,0.07485l-1.76416,0.17642h-1.33078l-6.48552,1.94566l-1.83408,0.35613l-1.81409,0.44695l-7,1l-1.77138,0.07485l-1.76416,0.17642h-33l-1.93443,-0.19344l-0.2446,0.01545l-0.86118,-0.12603l-0.86604,-0.0866l-0.23355,-0.07431l-1.92359,-0.2815l-1.01425,-0.25356h-2.92236l-2.05208,-0.20521l-2.05789,-0.13494l-6,-1l-1.88779,-0.51194l-1.90793,-0.43082l-2.15125,-0.71708h-2.94306v3l-0.39062,3.90625l-2.73437,8.59375l-7.42187,8.59375l-14.45312,3.90625l-14.45312,-3.90625l-7.42187,-8.59375l-0.90219,-2.83544l-0.28799,1.26394l-0.40858,0.88525l-1.16557,4.58944l-1.61753,1.44061l-0.58751,1.27293l-8.43049,7.60682l-7.64867,1.07481l-7.57034,1.53209l-10.48157,-4.36732l-0.97767,-1.00483l-2.00478,-0.82014l-2.62658,-3.93987l-0.67991,-0.6988l-2.09631,-3.31916l-0.29275,-0.58551l-0.60308,-0.90462l-0.08915,-0.47984l-0.11573,-0.23146l-0.41361,-0.47891l-0.30476,-0.95783l-0.18092,-0.36183l-1.39754,-3.66855l-0.28789,-1.83527l-0.56327,-1.77027l-0.08251,-0.82508c-3.45262,-0.80975 -6.80769,-2.3635 -10.21713,-3.37401c-0.21422,-0.06349 -0.31889,-0.69626 -0.43812,-0.5073c-1.82555,2.89325 -4.7164,9.02052 -8.19317,11.01781c-1.53905,0.88413 -3.50053,0.71005 -5.14035,1.38928c-1.63982,0.67924 -2.9037,2.18931 -4.61715,2.6524c-1.23811,0.33463 -10.86099,-0.7033 -11.32476,-0.82864c-9.16128,-2.47602 -14.65472,-10.48604 -21.31012,-16.8907c-0.79558,-0.7656 -2.15881,-0.65955 -3.03039,-1.33736c-2.98786,-2.32357 -5.0574,-5.63815 -7.42187,-8.59375c-2.03233,-2.54041 -1.55072,-6.54308 -2.94093,-9.4614c-2.45751,-5.15879 -6.52699,-9.47446 -9.07108,-14.56263c-2.19681,-4.39362 -3.15035,-9.68896 -3.125,-14.51087c0.0129,-2.45347 -1.27979,-24.98796 0.39063,-34.92842c0.80811,-4.809 3.53593,-12.30148 6.64924,-16.07518c2.09627,-2.54093 4.44678,-4.89144 6.98771,-6.98771c0.03282,-0.02708 3.12191,-1.16341 3.13579,-1.56789c0.04601,-1.34049 -7.34987,-12.14299 -8.03236,-13.01702c-0.23295,-0.29833 -5.47262,-15.13039 -6.00279,-16.72092c-0.52088,-1.56265 -1.25737,-3.06086 -1.62671,-4.6661c-4.33474,-18.83944 -0.15576,-42.33061 -0.15576,-60.28602c0,-7.52844 3.90609,-14.38492 4.66027,-21.89105c0.68366,-6.80428 1.13461,-10.8508 3.003,-17.35409c1.69938,-5.91499 0.81385,-12.78292 2.55584,-18.88565c2.5523,-8.94151 3.50218,-15.85143 5.43715,-24.74623c0.27335,-1.25656 1.41214,-3.36795 1.33356,-4.61115c-0.21925,-3.46853 -0.9656,-10.00522 -3.20023,-13.3091c-1.84518,-2.72809 -4.76133,-6.26737 -5.43311,-9.58675c-0.67274,-3.32414 -0.77616,-6.74049 -1.02366,-10.12298c-0.33309,-4.55228 6.57435,-13.55143 10.83095,-16.77051c1.08059,-0.81721 3.50425,-2.36301 5.00251,-3.11214c0.55036,-0.27518 1.87381,-0.04381 1.73063,-0.64224c-2.04189,-8.53409 -3.9983,-17.80391 -6.75717,-26.08051c-0.94987,-2.64201 -1.46745,-5.49021 -1.46745,-8.45931c0,-2.59439 0.39519,-5.09648 1.12866,-7.44935c0.98688,-3.88638 2.55503,-6.64822 4.90727,-8.84132c4.58483,-5.33233 11.38008,-8.70933 18.96407,-8.70933c2.43178,-0.81009 7.25316,0.54445 9.43027,1.83969c2.45677,1.00135 4.71847,2.38225 6.71226,4.06986c0.08952,0.07577 0.1785,0.15217 0.26694,0.22917c0.11235,0.07977 0.19694,0.1007 0.2153,-0.01876z"/></g></g></svg>